<?xml version="1.0" encoding="UTF-8" standalone="no"?>
<!DOCTYPE svg PUBLIC "-//W3C//DTD SVG 1.1//EN" "http://www.w3.org/Graphics/SVG/1.1/DTD/svg11.dtd">
<svg width="100%" height="100%" viewBox="0 0 2438 2438" version="1.1" xmlns="http://www.w3.org/2000/svg" xmlns:xlink="http://www.w3.org/1999/xlink" xml:space="preserve" xmlns:serif="http://www.serif.com/" style="fill-rule:evenodd;clip-rule:evenodd;stroke-linejoin:round;stroke-miterlimit:2;">
    <g transform="matrix(4.55377,0,0,4.55377,-112.493,-124.165)">
        <g>
            <path d="M30,427.5L30,157.5L131.25,157.5C187.5,157.5 232.5,202.5 232.5,258.75L232.5,322.5C232.5,356.25 258.75,382.5 292.5,382.5C326.236,382.5 352.5,356.25 352.5,322.5L352.5,157.5L480,157.5C521.25,157.5 555,191.25 555,232.5C555,259.075 547.5,270 531,290.25C547.637,305.703 555,326.25 555,348.75C555,393.75 517.5,427.5 472.5,427.5L352.5,427.5C375,416.25 390,397.5 397.5,382.5L472.5,382.5C495,382.5 510,365.566 510,348.75C510,326.25 495,311.25 472.5,311.25L412.5,311.25L412.5,266.25L480,266.25C495,266.25 510,251.25 510,232.5C510,217.5 495,202.5 480,202.5L397.5,202.5L397.5,322.5C397.5,375 352.5,427.5 292.5,427.5C236.252,427.5 187.5,378.75 187.5,322.5L187.5,258.75C187.5,228.75 161.25,202.5 131.25,202.5L75,202.5L75,382.5L135,382.5C150.735,382.5 167.669,372.04 177.75,357.75C180.86,372.284 190.561,385.077 200.895,399.711C183.75,416.25 157.899,427.5 135,427.5L30,427.5Z" style="fill:rgb(205,7,0);"/>
            <g transform="matrix(0.219598,0,0,0.219598,24.3207,6.29293)">
            </g>
            <g transform="matrix(0.219598,0,0,0.219598,24.3207,6.29293)">
            </g>
            <g transform="matrix(0.219598,0,0,0.219598,24.3207,6.29293)">
            </g>
        </g>
    </g>
    <g transform="matrix(1.09291,0,0,1.09291,1304.87,1019.97)">
        <clipPath id="_clip1">
            <path d="M0,62.5C0,28 28,0 62.5,0C97,0 125,28 125,62.5C125,97 97,125 62.5,125C28,125 0,97 0,62.5Z"/>
        </clipPath>
        <g clip-path="url(#_clip1)">
            <rect x="0" y="0" width="125" height="125" style="fill:rgb(205,7,0);"/>
        </g>
    </g>
    <g transform="matrix(1.09291,0,0,1.09291,1014.57,1139.51)">
        <clipPath id="_clip2">
            <path d="M0,187.5C0,84 84,0 187.5,0C291,0 375,84 375,187.5C375,291 291,375 187.5,375C84,375 0,291 0,187.5Z"/>
        </clipPath>
        <g clip-path="url(#_clip2)">
            <rect x="0" y="0" width="375" height="375" style="fill:rgb(205,7,0);"/>
        </g>
    </g>
</svg>
